<?xml version="1.0" encoding="utf-8"?>
<!-- Generator: Adobe Illustrator 17.1.0, SVG Export Plug-In . SVG Version: 6.00 Build 0)  -->
<!DOCTYPE svg PUBLIC "-//W3C//DTD SVG 1.1//EN" "http://www.w3.org/Graphics/SVG/1.1/DTD/svg11.dtd">
<svg version="1.1" id="Layer_1" xmlns="http://www.w3.org/2000/svg" xmlns:xlink="http://www.w3.org/1999/xlink" x="0px" y="0px"
	 viewBox="0 0 30 30" enable-background="new 0 0 30 30" xml:space="preserve">
<g>
	<path fill="#F0C419" d="M22.1,13.8l-0.6-4.7c-0.1-0.6-0.3-0.9-1-0.9h-5.5H9.6c-0.7,0-0.9,0.4-1,0.9l-0.6,4.7
		c-0.1,0.4,0.1,0.9,0.7,0.9h6.3h6.5C22,14.7,22.1,14.2,22.1,13.8z"/>
	<path fill="#F0C419" d="M11.5,7.2h3.4h3.6c0.7,0,0.7-1,0-1h-3.6h-3.4C10.8,6.1,10.8,7.2,11.5,7.2z"/>
	<path fill="#F0C419" d="M9.1,17.7c-0.7,0-1.2,0.5-1.2,1.2c0,0.7,0.5,1.2,1.2,1.2c0.7,0,1.2-0.5,1.2-1.2
		C10.3,18.2,9.8,17.7,9.1,17.7z"/>
	<path fill="#F0C419" d="M20.9,17.7c-0.7,0-1.2,0.5-1.2,1.2c0,0.7,0.5,1.2,1.2,1.2c0.7,0,1.2-0.5,1.2-1.2
		C22.1,18.2,21.5,17.7,20.9,17.7z"/>
	<path fill="#F0C419" d="M15,0C6.7,0,0,6.7,0,15c0,8.3,6.7,15,15,15s15-6.7,15-15C30,6.7,23.3,0,15,0z M15.1,4.5
		C15.1,4.5,15,4.5,15.1,4.5c-0.1,0-0.1,0-0.2,0H15.1z M23.6,22.9h-1.4v1.4c0,1.7-2.5,1.7-2.5,0v-1.4h-4.8h0h-4.6v1.4
		c0,1.7-2.5,1.7-2.5,0v-1.4H6.4V14l0.8-6.4c0.2-1.2,1-1.6,2.1-2.1c1.1-0.5,3.7-1,5.7-1c1.9,0,4.6,0.6,5.6,1c1.1,0.5,1.9,0.9,2.1,2.1
		l0.8,6.4V22.9z"/>
</g>
</svg>
