<?xml version="1.0" encoding="utf-8"?>
<!-- Generator: Adobe Illustrator 17.1.0, SVG Export Plug-In . SVG Version: 6.00 Build 0)  -->
<!DOCTYPE svg PUBLIC "-//W3C//DTD SVG 1.1//EN" "http://www.w3.org/Graphics/SVG/1.1/DTD/svg11.dtd">
<svg version="1.1" id="Layer_1" xmlns="http://www.w3.org/2000/svg" xmlns:xlink="http://www.w3.org/1999/xlink" x="0px" y="0px"
	 viewBox="0 0 300 300" enable-background="new 0 0 300 300" xml:space="preserve">
<path fill="#FFFFFF" d="M218.6,159.7l26.3-8l-2.8-25.4l-27.2-2.8c-3.1-8.3-7.9-16.2-14.4-23.2l9.8-25.4l-21.6-13.6l-18.8,19.7
	c-4.3-1.4-8.9-2.3-13.6-2.8c-4.7-0.5-9.3-0.5-13.6-0.5l-13.6-23.3l-23.4,7.5l3.2,26.7c-7.5,5.2-14.5,11.8-19.7,19.1l-26.6-3.8
	l-8.4,23.9L77.7,142c-0.9,9.3,0,18.8,2.8,27.2l-20.2,18.2L73.4,209l25.4-9.3c6.6,6.1,14.5,11.2,22.9,15l1.8,27.2l25.4,3.2l8.4-25.8
	c9.3-1.4,18.2-4.3,25.8-8.9l22.5,15.4l18.2-17.9l-14.5-22.5C213.9,177.9,217.3,169,218.6,159.7z M169.1,158.4l-2.3,11.2l-11.2,2.8
	l-10.7,4.3l-9.3-7l-10.1-5.8l-0.5-10.7l-1.8-11.2l8.9-7.5l7.5-8.4l11.2,1.8l11.3,0.5l5.2,10.3l6.6,9.3L169.1,158.4z"/>
</svg>
