<?xml version="1.0" encoding="utf-8"?>
<!-- Generator: Adobe Illustrator 17.1.0, SVG Export Plug-In . SVG Version: 6.00 Build 0)  -->
<!DOCTYPE svg PUBLIC "-//W3C//DTD SVG 1.1//EN" "http://www.w3.org/Graphics/SVG/1.1/DTD/svg11.dtd">
<svg version="1.1" id="Layer_1" xmlns="http://www.w3.org/2000/svg" xmlns:xlink="http://www.w3.org/1999/xlink" x="0px" y="0px"
	 viewBox="0 0 300 132" enable-background="new 0 0 300 132" xml:space="preserve">
<g id="a0cdJq.tif">
	<g>
		<path fill="#2980BA" d="M208.6,36.1c-3.8,14.3-11.2,26.8-20.1,38.5c-14.7,19.3-32.4,35-54.7,45.1c-2.1,1-4.3,1.8-6.5,2.6
			c-2.1,0.8-4.3,1.4-6.6,2.1c0.2,0.2,0.4,0.5,0.6,0.5c32.5,3,64.8,1.7,96.5-6.4c15.8-4,31.1-9.6,45.1-18.3c6.5-4,12.5-8.7,17.4-14.6
			c10-12,10.7-25.3,1.9-38.3c-5.3-7.9-12.5-13.7-20.6-18.6c-17.2-10.4-36.1-15.9-56-19.9C211.9,17.6,211,26.8,208.6,36.1z M91,91.4
			c4.2-14.2,12.1-26.4,21.1-38c14.2-18.1,31-33.2,51.9-43.3c3.8-1.8,7.8-3.2,11.7-4.9c-10.8-1-21.6-1.5-32.4-1.1
			c-10.9,0.3-21.9,1-32.7,2.6c-25.4,3.6-50.1,9.8-72.3,23.4c-6.7,4.1-12.7,9-17.6,15.1c-11.2,13.9-10.6,30,1.6,43
			c5.3,5.6,11.4,10.1,18,13.9c16.5,9.4,34.5,14.8,53.6,18.8C86.5,111.3,88,101.3,91,91.4z"/>
		<path fill="#2980BA" d="M205.6,8.9c6.3,8.8,5.4,18,3,27.2c-3.8,14.3-11.2,26.8-20.1,38.5c-14.7,19.3-32.4,35-54.7,45.1
			c-2.1,1-4.3,1.8-6.5,2.6c-2.1,0.8-4.3,1.4-6.6,2.1c0.2,0.2,0.4,0.5,0.6,0.5c32.5,3,64.8,1.7,96.5-6.4c15.8-4,31.1-9.6,45.1-18.3
			c6.5-4,12.5-8.7,17.4-14.6c10-12,10.7-25.3,1.9-38.3c-5.3-7.9-12.5-13.7-20.6-18.6C244.4,18.3,225.5,12.8,205.6,8.9z"/>
		<path fill="#2980BA" d="M93.9,120.9c-7.4-9.6-5.8-19.6-2.9-29.5c4.2-14.2,12.1-26.4,21.1-38c14.2-18.1,31-33.2,51.9-43.3
			c3.8-1.8,7.8-3.2,11.7-4.9c-10.8-1-21.6-1.5-32.4-1.1c-10.9,0.3-21.9,1-32.7,2.6c-25.4,3.6-50.1,9.8-72.3,23.4
			c-6.7,4.1-12.7,9-17.6,15.1c-11.2,13.9-10.6,30,1.6,43c5.3,5.6,11.4,10.1,18,13.9C56.8,111.4,74.7,116.9,93.9,120.9z"/>
	</g>
</g>
</svg>
