<?xml version="1.0" encoding="utf-8"?>
<!-- Generator: Adobe Illustrator 17.1.0, SVG Export Plug-In . SVG Version: 6.00 Build 0)  -->
<!DOCTYPE svg PUBLIC "-//W3C//DTD SVG 1.1//EN" "http://www.w3.org/Graphics/SVG/1.1/DTD/svg11.dtd">
<svg version="1.1" id="Layer_1" xmlns="http://www.w3.org/2000/svg" xmlns:xlink="http://www.w3.org/1999/xlink" x="0px" y="0px"
	 viewBox="0 0 30 30" enable-background="new 0 0 30 30" xml:space="preserve">
<circle fill="#BDC3C7" cx="15" cy="15" r="15"/>
<g>
	<circle fill="#FFFFFF" cx="16.5" cy="4.7" r="2.2"/>
	<path fill="#FFFFFF" d="M22.3,13.9l-3.1-1.4l-2-4.1c-0.1-0.1-0.1-0.3-0.2-0.4L17,8c-0.1-0.3-0.3-0.4-0.5-0.5
		c-0.2-0.2-0.5-0.3-0.8-0.4C15.5,7,15.3,7,15.1,7c-0.2,0-0.3,0-0.5,0.1c-0.3,0.1-0.5,0.2-0.8,0.4L9.3,9.9c-0.1,0.1-0.2,0.1-0.2,0.2
		c-0.2,0.1-0.4,0.3-0.5,0.6l-0.7,3.8c-0.1,0.5,0.2,0.9,0.7,1s0.9-0.2,1-0.7l0.7-3.6l2.5-1.3l-1.1,5c0,0.2-0.1,0.3-0.1,0.4l-0.8,5.2
		c0,0-0.1,0.1-0.1,0.1l-3.3,5c-0.4,0.6-0.3,1.4,0.2,1.7s1.2,0.1,1.6-0.6l3.3-5c0.1-0.2,0.2-0.3,0.2-0.5c0.1-0.1,0.1-0.2,0.1-0.3
		l0.6-3.9c0.1,0,0.2,0.1,0.2,0.1c0.3,0.1,0.5,0.2,0.7,0.2l3.4,4.1l1.1,5c0.1,0.6,0.7,1.1,1.3,0.9c0.6-0.1,1-0.7,0.8-1.4L20,21
		c-0.1-0.2-0.1-0.4-0.3-0.5c-0.1-0.1-0.1-0.1-0.2-0.2L16,16l1-4.4l0.8,1.7c0,0.1,0.1,0.1,0.1,0.2c0.1,0.2,0.2,0.5,0.4,0.6l3.3,1.5
		c0.4,0.2,0.9,0,1.1-0.5C22.9,14.6,22.7,14.1,22.3,13.9z"/>
</g>
</svg>
