<?xml version="1.0" encoding="utf-8"?>
<!-- Generator: Adobe Illustrator 17.1.0, SVG Export Plug-In . SVG Version: 6.00 Build 0)  -->
<!DOCTYPE svg PUBLIC "-//W3C//DTD SVG 1.1//EN" "http://www.w3.org/Graphics/SVG/1.1/DTD/svg11.dtd">
<svg version="1.1" id="Layer_1" xmlns="http://www.w3.org/2000/svg" xmlns:xlink="http://www.w3.org/1999/xlink" x="0px" y="0px"
	 viewBox="0 0 100 100" enable-background="new 0 0 100 100" xml:space="preserve">
<g>
	<path fill="#2980B9" d="M50,10c22.1,0,40,17.9,40,40S72.1,90,50,90S10,72.1,10,50S27.9,10,50,10 M50,0C22.4,0,0,22.4,0,50
		s22.4,50,50,50s50-22.4,50-50S77.6,0,50,0L50,0z"/>
</g>
<path fill="#2980B9" d="M50,53.6c-2,0-3.6-1.6-3.6-3.6c0-2,1.6-3.6,3.6-3.6c2,0,3.6,1.6,3.6,3.6C53.6,52,52,53.6,50,53.6z"/>
<g>
	<path fill="#2980B9" d="M50,55.6c-2.1,0-4-1.2-4.9-2.9C45.8,63.3,50,85,50,85s4.2-21.7,4.9-32.4C54,54.4,52.1,55.6,50,55.6z"/>
	<path fill="#2980B9" d="M50,44.4c2.1,0,3.9,1.2,4.9,2.9C54.2,36.7,50,15,50,15s-4.2,21.7-4.9,32.3C46,45.6,47.9,44.4,50,44.4z"/>
</g>
</svg>
