<?xml version="1.0" encoding="utf-8"?>
<!-- Generator: Adobe Illustrator 17.1.0, SVG Export Plug-In . SVG Version: 6.00 Build 0)  -->
<!DOCTYPE svg PUBLIC "-//W3C//DTD SVG 1.1//EN" "http://www.w3.org/Graphics/SVG/1.1/DTD/svg11.dtd">
<svg version="1.1"
	 id="Layer_1" xmlns:v="http://schemas.microsoft.com/visio/2003/SVGExtensions/" xmlns:svg="http://www.w3.org/2000/svg" xmlns:rdf="http://www.w3.org/1999/02/22-rdf-syntax-ns#" xmlns:inkscape="http://www.inkscape.org/namespaces/inkscape" xmlns:cc="http://creativecommons.org/ns#" xmlns:dc="http://purl.org/dc/elements/1.1/" xmlns:sodipodi="http://sodipodi.sourceforge.net/DTD/sodipodi-0.dtd" sodipodi:docname="Coffee.svg" inkscape:version="0.48.2 r9819"
	 xmlns="http://www.w3.org/2000/svg" xmlns:xlink="http://www.w3.org/1999/xlink" x="0px" y="0px" viewBox="-14 -5.5 118 118"
	 enable-background="new -14 -5.5 118 118" xml:space="preserve">
<path id="path6" display="none" fill="#FFFFFF" d="M75.4,31.5H9.9v7.2c0,0,0,0,0,0v34.4c0,7.6,6.2,13.8,13.8,13.8h37.9
	c7.6,0,13.9-6.2,13.9-13.8c0.1,0-0.1-12.1,0-12.1c8.1-0.1,14.7-6.7,14.7-14.7C90.1,38.1,83.5,31.5,75.4,31.5z M75.4,53.6V38.8
	c4.1,0,7.4,3.3,7.4,7.4C82.8,50.3,79.5,53.6,75.4,53.6z M44.8,30.1c-4.4,0-9.4-0.8-9.4-3.2c0-1.9,4.8-2.5,10.9-3.1
	c2.2-0.2,5.5-0.6,7.2-1c-2.2-0.4-7.3-0.9-10.8-1.1c-10-0.8-14.8-1.3-14.8-3.2c0-3.7,26.4-5.3,28.3-5.3c1,0,1.9,0.5,1.9,1.1
	c0,0.6-0.8,1.1-1.9,1.1c-5.6,0-20.6,1.7-24,3.1c2.1,0.5,7.4,0.9,11.1,1.2c10,0.8,14.8,1.3,14.8,3.2c0,1.9-4.8,2.5-10.9,3.1
	c-2.6,0.3-6.8,0.8-7.9,1.2c0.4,0.6,3.5,0.9,5.6,0.9c1,0,1.9,0.5,1.9,1.1C46.7,29.6,45.9,30.1,44.8,30.1L44.8,30.1z"/>
<g>
	<path fill="#34495E" d="M75.4,38.8v14.7c4.1,0,7.4-3.3,7.4-7.4C82.8,42.2,79.5,38.8,75.4,38.8z"/>
	<path fill="#34495E" d="M45-5.5c-32.6,0-59,26.4-59,59s26.4,59,59,59s59-26.4,59-59S77.6-5.5,45-5.5z M56.1,13.2
		c1,0,1.9,0.5,1.9,1.1c0,0.6-0.8,1.1-1.9,1.1c-5.6,0-20.6,1.7-24,3.1c2.1,0.5,7.4,0.9,11.1,1.2c10,0.8,14.8,1.3,14.8,3.2
		c0,1.9-4.8,2.5-10.9,3.1c-2.6,0.3-6.8,0.8-7.9,1.2c0.4,0.6,3.5,0.9,5.6,0.9c1,0,1.9,0.5,1.9,1.1c0,0.6-0.8,1.1-1.9,1.1
		c-4.4,0-9.4-0.8-9.4-3.2c0-1.9,4.8-2.5,10.9-3.1c2.2-0.2,5.5-0.6,7.2-1c-2.2-0.4-7.3-0.9-10.8-1.1c-10-0.8-14.8-1.3-14.8-3.2
		C27.9,14.7,54.3,13.2,56.1,13.2z M75.4,61c-0.1,0,0.1,12.1,0,12.1c0,7.6-6.3,13.8-13.9,13.8H23.6c-7.6,0-13.8-6.2-13.8-13.8V38.7
		c0,0,0,0,0,0v-7.2h65.5c8.1,0,14.7,6.6,14.7,14.7C90.1,54.3,83.4,60.8,75.4,61z"/>
</g>
</svg>
