<?xml version="1.0" encoding="utf-8"?>
<!-- Generator: Adobe Illustrator 17.1.0, SVG Export Plug-In . SVG Version: 6.00 Build 0)  -->
<!DOCTYPE svg PUBLIC "-//W3C//DTD SVG 1.1//EN" "http://www.w3.org/Graphics/SVG/1.1/DTD/svg11.dtd">
<svg version="1.1" id="Layer_1" xmlns="http://www.w3.org/2000/svg" xmlns:xlink="http://www.w3.org/1999/xlink" x="0px" y="0px"
	 viewBox="0 0 300 150" enable-background="new 0 0 300 150" xml:space="preserve">
<g id="xeco5S.tif">
	<g>
		<path fill="#FEFDFD" d="M195.9,103.8c-1.4,13.9-12.3,22.2-24.9,18.9c-2.5-0.6-4.6-1.9-6.8-3.6c-1.6,3-0.5,6-0.7,8.8
			c-0.2,2.3-0.1,4.6-0.3,6.8c-0.3,3.3-2.4,5.1-5.7,5.6c-3.6,0.5-5.6-1.6-6.6-4.7c-0.5-1.5-0.5-3.2-0.5-4.9c-0.1-11-0.1-22-0.2-33
			c0.1-8.1,0.1-16.2,0.3-24.3c0.1-2.9,0.2-5.9,3.6-7.1c3.3-1.2,6-0.3,7.9,2.7c0.6,0.9,0.6,2,2.3,0.7c9.5-7,28.1-4.2,31.5,12.6
			C197,89.5,196.9,96.7,195.9,103.8z M189.3,94.3c-0.1-3.8-0.1-7.6-1.5-11.2c-1.3-3.4-3.6-5.4-7.4-5.5c-4.6-0.1-7.8,1.6-9.1,5.4
			c-2.5,7.4-2.7,14.9-0.5,22.4c1.2,4.1,4.8,6.2,9,6.1c4.2-0.2,7-2.4,8.3-6.6C189.2,101.4,189.1,97.9,189.3,94.3z"/>
		<path fill="#FEFDFD" d="M86.2,112c0.5,0,1,0,1.5,0c0.7,0.1,1.4,0.2,1.9-0.4c4.7-0.4,7.2-4.4,11-6.3c0.8,0,1.5,0,2.3,0
			c4.7,2.6,5.5,6.3,2.4,10.6c-1.9,2.5-4.4,4.3-7.2,5.4c-13.4,5.2-30.4,3.7-34.2-17.3c-0.6-7.7-0.7-15.3,1.4-22.8
			C68.8,68.7,80,65.5,90.2,67c12.2,1.8,17.5,8.4,18.2,20.9c0.7,11.9,0.7,11.9-11.3,11.9c-5.7,0-11.4,0-17.1,0c-1.7,0-3.5-0.1-3,2.5
			c0.4,5.5,2.2,7.8,7.3,9.2C84.8,112.2,85.5,112.1,86.2,112z M83.9,90.1c2.9,0,5.8-0.2,8.7,0.1c2.6,0.2,3-1,2.6-3.1
			c-0.9-5.7-4.8-9.2-10.2-9.1c-6.1,0.1-11.2,4.3-11.7,9.7c-0.2,1.8,0.5,2.5,2.3,2.5C78.4,90,81.2,90.1,83.9,90.1z"/>
		<path fill="#FEFDFD" d="M48,102.3c-2.7,8.2-5.4,16.5-8.2,24.7c-2.9,8.5-7.8,11.6-16.7,11.1c-1.9-0.1-3.7-0.6-5.4-1.6
			c-2.2-1.3-3.2-3.2-2.8-5.7c0.4-2.5,1.9-4,4.4-4.7c0.5-0.1,1-0.2,1.5-0.2c8.8-0.6,9.9-2.6,6-10.5c-2.2-4.4-4.5-8.7-6.7-13.1
			c-2.6-6.5-5.9-12.6-9.1-18.7c-1.4-2.7-3.1-5.4-3.7-8.3c-0.7-3.8,1.7-7,4.8-7.8c3.5-0.9,5.9,0.4,7.9,4.2
			c4.6,8.6,9.1,17.3,13.7,25.9c0.3,0.6,0.8,1.2,1.5,2.5c1.6-5.1,3-9.7,4.6-14.3c1.7-5.1,2.5-10.5,4.9-15.4c1.5-3,3.3-4.3,6.5-3.4
			c3.7,0.9,5.6,3.2,5.1,6.8c-0.5,3.2-1.6,6.3-2.6,9.4C51.9,89.5,50,95.9,48,102.3z"/>
		<path fill="#FEFDFD" d="M251.3,54.1c-0.1,2.9,0.2,5-0.6,7.1c-1.6,4-4.7,5-7.8,2c-1.7-1.7-3.1-3.7-4.3-5.7
			C231.7,46.6,225,35.8,218.2,25c-1.9-3.1-1.5-6.2,1.9-7.9c7.4-3.6,15.2-5.7,23.5-6.1c3.1-0.2,4.9,1.4,5.1,4.8
			C249.5,28.8,250.4,41.8,251.3,54.1z"/>
		<path fill="#FEFDFD" d="M135.1,97.8c0,2.5,0,5.1,0,7.6c0,4.1,0,8.1,0,12.2c-0.6,2.9-1.9,5.3-5,5.9c-2.6,0.5-5.1,0.3-7-2.2
			c-0.8-1-0.9-1.9-0.9-3.1c0-5-0.1-10.1-0.2-15.1c0.1-15.9,0.1-31.8,0.2-47.8c0-4.9,4-7.5,8.8-5.8c3.6,1.3,4,4.2,4,7.3
			c0,12.3,0,24.5,0,36.8C134.9,95,135,96.4,135.1,97.8z"/>
		<path fill="#FEFDFD" d="M288.8,104.6c-2.2,2.4-4.3,5-6.7,7.2c-4,3.8-6.8,3.4-9.9-1.1c-1.8-2.7-2.9-5.9-5.5-8c-1-4-3.8-7-5.9-10.4
			c-1.7-2.7-1.8-5.2,0.1-7.7c1.9-2.4,4.3-2,6.9-1.1c6.8,2.3,13.6,4.5,20.4,6.8c1.8,0.6,3.4,1.4,4.8,2.9c1,1.1,1.2,2.1,0.5,2.9
			C291.3,98.6,290.6,102,288.8,104.6z"/>
		<path fill="#FEFDFD" d="M208.1,76.4c0.2-3.9-0.5-8,1.7-11.6c1.3-2.1,2.8-2.8,5-2c8,3.1,16.1,6.3,24.1,9.5c2.1,0.8,3,2.6,2.9,4.9
			c-0.2,2.3-1.1,4.3-3.4,5c-7.8,2.6-15.6,5.1-23.4,7.4c-3.8,1.1-6.1-0.7-6.7-4.9c-0.1-0.4-0.1-0.8-0.1-1.1
			C208.1,81.2,208.1,78.8,208.1,76.4z"/>
		<path fill="#FEFDFD" d="M292.4,63.3c-0.1,2.7-1.6,4.3-4,4.9c-7.7,2-15.4,3.8-23.2,5.7c-2.4,0.6-4.5,0-6.1-2.1
			c-1.6-2.2-1-4.8,0.3-6.4c5.1-6.5,9.4-13.7,14.9-19.8c2-2.2,4.3-2.5,6.3-0.6c5.2,4.7,9,10.5,11.5,17
			C292.3,62.3,292.3,62.8,292.4,63.3z"/>
		<path fill="#FEFDFD" d="M251.3,103.8c-0.1,4.3-0.3,8.6-0.4,12.8c-0.1,5-2,6.6-6.9,5.7c-5.5-1-10.7-2.9-15.5-5.7
			c-4.3-2.5-4.8-4.7-1.8-8.8c0.7-0.9,1.3-1.8,1.9-2.8c4.6-4.3,8.3-9.5,12.4-14.2c1.9-2.1,3.7-3.9,6.8-2.7c3,1.2,3.5,3.6,3.4,6.5
			C251,97.8,251.2,100.8,251.3,103.8z"/>
	</g>
</g>
</svg>
