<?xml version="1.0" encoding="utf-8"?>
<!-- Generator: Adobe Illustrator 17.1.0, SVG Export Plug-In . SVG Version: 6.00 Build 0)  -->
<!DOCTYPE svg PUBLIC "-//W3C//DTD SVG 1.1//EN" "http://www.w3.org/Graphics/SVG/1.1/DTD/svg11.dtd">
<svg version="1.1" xmlns="http://www.w3.org/2000/svg" xmlns:xlink="http://www.w3.org/1999/xlink" x="0px" y="0px"
	 viewBox="0 0 72 72" enable-background="new 0 0 72 72" xml:space="preserve">
<g id="Layer_1">
	<g>
		<path fill="#C7C8CA" d="M64.8,38.1c0-4.8,0-9.6,0-14.4c0-1.5-0.3-3-1.2-4.3c-1.5-2.1-4.5-2-6.1-0.8c1.1-0.1,1.8,0.4,2.3,1.4
			c0.4,0.9,0.6,1.8,0.6,2.8c0,7.7,0,15.3,0,23c0,1,0,2-0.1,3c-0.3,0.2-0.2,0.5-0.3,0.7c-0.6,1.6-1.5,2.9-3,3.7
			c-7.1,4.1-14.2,8.2-21.2,12.3c-2.1,1.2-3.2,1.2-5.1-0.4c0.1,0.5,0.2,1,0.3,1.4c0.3,1.3,1,2.3,2.2,2.9c1.8,1,3.6,0.6,5.3-0.4
			c4.5-2.6,9-5.2,13.4-7.8c2.2-1.3,4.5-2.6,6.7-3.9c1.8-1.1,3.6-2,4.8-3.8c1.1-1.7,1.5-3.7,1.5-5.6C64.8,44.5,64.8,41.3,64.8,38.1z"
			/>
		<path fill="#C7C8CA" d="M57.3,57.9C57.3,57.9,57.3,57.9,57.3,57.9C57.3,57.9,57.3,57.9,57.3,57.9C57.3,57.9,57.3,57.9,57.3,57.9z"
			/>
	</g>
</g>
<g id="Layer_2" display="none">
	<path display="inline" fill="#C7C8CA" d="M56.9,19.3c0-0.9-0.1-1.8-0.3-2.6c-1-3.7-4.4-4.3-7-2.7c1.4,0.1,2,0.6,2.5,2
		c0.2,0.7,0.3,1.4,0.3,2.1c0,7.8,0,15.5,0,23.3c0,1.6-0.1,3-0.9,4.4c-0.7,1.3-1.7,2.3-3,3c-6,3.4-11.9,6.9-17.9,10.3
		c-1.3,0.8-2.6,1.6-4,2.2c-1.7,0.7-2.6,0.5-3.8-0.9c0,0-0.1,0-0.1,0c0,0.3,0.1,0.6,0.1,0.9c0.1,1.1,0.6,2,1.4,2.7
		c1.7,1.6,4,1.5,5.9,0.5c4-2.2,7.9-4.5,11.8-6.8c1.5-0.9,3-1.7,4.5-2.6c1.9-1.1,3.8-2.2,5.7-3.3c3.3-1.8,4.9-4.6,4.8-8.4
		C56.9,35.4,56.9,27.3,56.9,19.3z"/>
	<path display="inline" fill="#8D9092" d="M33.8,23c-2.6,1.6-5.3,2.8-7.6,4.5c-1.8,1.3-2.9,3.2-3.2,5.4c-0.2,1.8-0.1,3.6-0.1,5.3
		c0,1.2,0,2.4,0,3.7c1.4-0.8,2.7-1.6,4-2.3c0.4-0.2,0.5-0.5,0.5-0.9c0-1.9-0.3-4.2,0.5-6c0.2-0.4,0.4-0.8,0.7-1.2
		c0.3-0.3,0.7-0.6,1-0.8c0.6-0.4,1.3-0.8,1.9-1.3c0.3-0.2,0.6-0.4,1-0.6c0.3-0.2,0.7-0.3,0.9-0.6c0.2-0.1,0.5-0.2,0.5-0.5
		C33.8,26.3,33.8,24.7,33.8,23z"/>
</g>
<g id="Layer_3" display="none">
	<path display="inline" fill="#C7C8CA" d="M49,14.8c0-0.4,0-0.8,0-1.2c-0.1-1.1-0.4-2.2-1.1-3.2c-1.5-2.2-4.1-2-6-1.2
		c-0.1,0-0.2,0-0.2,0.2c0.1,0.1,0.2,0.2,0.3,0.2c1.1-0.1,1.6,0.6,2,1.5c0.4,0.8,0.5,1.8,0.5,2.7c0,7.7,0,15.5,0,23.2
		c0,1.3-0.1,2.5-0.6,3.7c-0.7,1.5-1.8,2.8-3.3,3.6c-2.6,1.5-5.2,3-7.8,4.5c-4.4,2.5-8.8,5.1-13.2,7.6C18.8,56.7,18,57,17.1,57
		c-1,0-1.7-0.4-2.2-1.3c-0.2,2.7,1.8,5.1,4.7,4.9c1.3-0.1,2.4-0.5,3.4-1.2c3.8-2.2,7.5-4.3,11.3-6.5c3.4-2,6.9-3.9,10.3-6
		c2.9-1.7,4.4-4.3,4.4-7.6C49,31.2,49,23,49,14.8z"/>
	<path display="inline" fill="#8D9092" d="M33.8,14.7c0-0.2,0.1-0.5-0.1-0.7c-0.2-0.1-0.4,0.1-0.6,0.2c-4.1,2.4-8.3,4.7-12.4,7.1
		c-1.5,0.8-3,1.6-4,3c-0.9,1.3-1.6,2.7-1.7,4.2c-0.2,1.7,0,8.7,0,11c0,1.2,0,2.3,0,3.5c0,0.6,0,1.2,0,1.8c0,0.2,0.1,1.7,0,1.8
		c1.3-0.8,2.6-1.5,3.9-2.2c0.4-0.2,0.6-0.5,0.6-1c0-4.2,0-8.5,0-12.7c0-1.5,0.6-3,1.7-4.1c0.7-0.7,1.7-1.1,2.5-1.7
		c1.1-0.6,2.1-1.2,3.2-1.9c2.1-1.2,4.3-2.5,6.4-3.7c0.4-0.2,0.6-0.5,0.6-1C33.7,17.1,33.8,15.9,33.8,14.7z"/>
</g>
<g id="Layer_4" display="none">
	<path display="inline" fill="#C7C8CA" d="M41.1,18c0-2.5,0-5.1,0-7.6c0-0.1,0-0.2,0-0.3c0-1.2-0.2-2.3-0.6-3.4
		c-1.2-2.8-4.3-3.3-6.8-1.8c1.4-0.1,2.1,0.7,2.6,1.9c0.3,0.7,0.3,1.4,0.3,2.1c0,6.9,0,13.8,0,20.7c0,2.4,0.3,4.8-0.9,7
		c-0.7,1.4-1.9,2.5-3.2,3.2c-1.6,0.9-3.2,1.8-4.8,2.7c-5.2,3-10.4,6-15.7,9c-0.8,0.5-1.6,0.9-2.6,1c-1,0.1-1.9-0.3-2.4-1.4
		c0,0.4,0,0.5,0,0.7c0.2,2.4,1.9,4.4,4.6,4.3c1.2,0,2.3-0.4,3.4-1.1c4.2-2.5,8.4-4.9,12.7-7.3c2-1.2,4.1-2.4,6.1-3.5
		c1-0.6,2-1.1,2.9-1.7c3-1.7,4.5-4.3,4.5-7.7C41.1,29.2,41.1,23.6,41.1,18z"/>
	<path display="inline" fill="#8D9092" d="M33.7,9.2C33.4,7,31.5,6,29.5,7c-1.2,0.6-2.3,1.3-3.5,2c-3.8,2.2-7.7,4.4-11.5,6.7
		c-1.8,1.1-3.8,1.9-5.3,3.5c-1.3,1.4-2.1,3.1-2.3,4.9c-0.2,1.9,0,3.9,0,5.8c0,5.6,0,11.2,0,16.7c0,0.1,0,0.2,0,0.4
		c0.1,1.5,1.2,2.4,2.5,2.2c0.4-0.1,0.9-0.2,1.3-0.4c0.5-0.2,0.6-0.5,0.6-1c0-7.1,0-14.1,0-21.2c0-1.9,0.5-3.5,1.8-4.8c0,0,0,0,0,0
		c0-0.1,0.1-0.1,0.2-0.2c0.1-0.1,0.2-0.2,0.3-0.3c3.2-1.9,6.4-3.8,9.6-5.6c3.3-1.9,6.7-3.8,10-5.7C33.7,9.9,33.8,9.6,33.7,9.2z"/>
	<path display="inline" fill="#8D9092" d="M13.1,21.9c0-0.1,0.1-0.1,0.2-0.2C13.3,21.8,13.2,21.8,13.1,21.9z"/>
</g>
</svg>
