<?xml version="1.0" encoding="utf-8"?>
<!-- Generator: Adobe Illustrator 17.1.0, SVG Export Plug-In . SVG Version: 6.00 Build 0)  -->
<!DOCTYPE svg PUBLIC "-//W3C//DTD SVG 1.1//EN" "http://www.w3.org/Graphics/SVG/1.1/DTD/svg11.dtd">
<svg version="1.1" id="Your_Icon" xmlns="http://www.w3.org/2000/svg" xmlns:xlink="http://www.w3.org/1999/xlink" x="0px" y="0px"
	 viewBox="0 0 100 100" enable-background="new 0 0 100 100" xml:space="preserve">
<path fill="#FFFFFF" d="M63.3,50c-1.1,0-2.1-0.6-2.7-1.5L49.2,30.8c0,0,0,0,0,0c-1.7-2.7-2.6-5.8-2.6-9C46.5,12.5,54,5,63.3,5
	C72.5,5,80,12.5,80,21.8c0,3.2-0.9,6.4-2.7,9.1L65.9,48.6C65.3,49.5,64.3,50,63.3,50z M54.5,27.4L63.3,41L72,27.4
	c1.1-1.7,1.6-3.6,1.6-5.6c0-5.7-4.7-10.4-10.4-10.4S52.9,16,52.9,21.8C52.9,23.7,53.4,25.7,54.5,27.4C54.5,27.4,54.5,27.4,54.5,27.4
	z M63.3,28.6c-3.8,0-6.9-3.1-6.9-6.9s3.1-6.9,6.9-6.9s6.9,3.1,6.9,6.9S67,28.6,63.3,28.6z M63.3,19.1c-1.4,0-2.6,1.2-2.6,2.6
	c0,1.4,1.2,2.6,2.6,2.6s2.6-1.2,2.6-2.6C65.9,20.3,64.7,19.1,63.3,19.1z M36.2,94.9c-0.1,0-0.2,0-0.3-0.1l-0.1,0
	C36,94.9,36.1,94.9,36.2,94.9z M37.8,94.8l-0.1,0c-0.1,0-0.2,0.1-0.3,0.1C37.6,94.9,37.7,94.9,37.8,94.8z M90.3,32.8L85,31.3
	c-1.7-0.5-3.4,0.5-3.9,2.2c-0.5,1.7,0.5,3.5,2.2,3.9l3,0.9v49.3l-21-6V58.8c0-1.2-1-2.1-2.1-2.1c-1.2,0-2.1,1-2.1,2.1v22.8L39,87.9
	V38.6l4.5-1.3c1.7-0.5,2.7-2.2,2.2-3.9c-0.5-1.7-2.2-2.7-3.9-2.2l-4.8,1.4l-25.4-7.2c-1-0.3-2-0.1-2.8,0.5s-1.3,1.5-1.3,2.5v56
	c0,1.4,0.9,2.7,2.3,3.1l26.2,7.5c0.1,0,0.3,0.1,0.4,0.1c0.2,0,0.4,0.1,0.6,0.1c0.2,0,0.4,0,0.6-0.1c0.1,0,0.3-0.1,0.4-0.1l25.3-7.2
	h0l25.4,7.3c0.3,0.1,0.6,0.1,0.9,0.1c0.7,0,1.4-0.2,1.9-0.6c0.8-0.6,1.3-1.6,1.3-2.5v-56C92.7,34.4,91.7,33.2,90.3,32.8z M34.7,87.9
	l-21-6V32.6l21,6V87.9z"/>
</svg>
