<?xml version="1.0" encoding="utf-8"?>
<!-- Generator: Adobe Illustrator 17.1.0, SVG Export Plug-In . SVG Version: 6.00 Build 0)  -->
<!DOCTYPE svg PUBLIC "-//W3C//DTD SVG 1.1//EN" "http://www.w3.org/Graphics/SVG/1.1/DTD/svg11.dtd">
<svg version="1.1" id="Layer_1" xmlns="http://www.w3.org/2000/svg" xmlns:xlink="http://www.w3.org/1999/xlink" x="0px" y="0px"
	 viewBox="0 0 100 100" enable-background="new 0 0 100 100" xml:space="preserve">
<g id="Captions">
</g>
<g id="Layer_7" display="none">
	<path display="inline" d="M79.8,50c0-3.4,2.8-6.2,6.2-6.2V29.7H14.1v14.1c3.4,0,6.2,2.8,6.2,6.2c0,3.4-2.8,6.2-6.2,6.2v14.1h71.9
		V56.2C82.5,56.2,79.8,53.4,79.8,50z"/>
</g>
<g id="Your_Icon" display="none">
	<path display="inline" d="M84.6,28.1L69.1,43.6L56.4,30.9l15.6-15.6c-7.4-2.6-16-1-21.9,4.9c-5.9,5.9-7.5,14.5-4.9,21.9l-31,31
		l12.7,12.7l31-31c7.4,2.6,16,1,21.9-4.9C85.7,44,87.3,35.5,84.6,28.1z"/>
</g>
<g id="Layer_6" display="none">
	<path display="inline" d="M71.9,38.7V14.1H28.1v24.6h0l-2.3,16.8h0v22.2h2v8.3h7.4v-8.3h29.6v8.3h7.4v-8.3h2V55.5h0L71.9,38.7z
		 M35.1,71.2c-2.5,0-4.6-2.1-4.6-4.6c0-2.5,2.1-4.6,4.6-4.6c2.5,0,4.6,2.1,4.6,4.6C39.7,69.1,37.6,71.2,35.1,71.2z M64.9,71.2
		c-2.6,0-4.6-2.1-4.6-4.6c0-2.5,2.1-4.6,4.6-4.6c2.5,0,4.6,2.1,4.6,4.6C69.5,69.1,67.5,71.2,64.9,71.2z M30.5,54.5l3-15.8h1.5h30.3
		h1.3l3,15.8H30.5z"/>
</g>
<g id="Layer_5">
	<path fill="#FFFFFF" d="M86,18.7L78.1,27l0.2,0c-6.6-7.9-16.5-13-27.7-13c-20,0-36.1,16.1-36.1,36c0,19.9,16.2,36,36.2,36
		c15.5,0,28.7-9.7,33.8-23.2l-13.3-5.5c-3,8.4-11.1,14.5-20.5,14.5c-12,0-21.8-9.7-21.8-21.7c0-12,9.8-21.7,21.8-21.7
		c7.2,0,13.6,3.5,17.5,8.9l-8.7,8.1l26.5,0V18.7z"/>
</g>
<g id="Layer_4" display="none">
	<polygon display="inline" points="14,14 86,50 14,86 	"/>
</g>
</svg>
