<?xml version="1.0" encoding="utf-8"?>
<!-- Generator: Adobe Illustrator 17.1.0, SVG Export Plug-In . SVG Version: 6.00 Build 0)  -->
<!DOCTYPE svg PUBLIC "-//W3C//DTD SVG 1.1//EN" "http://www.w3.org/Graphics/SVG/1.1/DTD/svg11.dtd">
<svg version="1.1" id="relogio" xmlns="http://www.w3.org/2000/svg" xmlns:xlink="http://www.w3.org/1999/xlink" x="0px" y="0px"
	 viewBox="0 0 78.9 78.9" enable-background="new 0 0 78.9 78.9" xml:space="preserve">
<circle fill="#2880BA" cx="39.5" cy="39.5" r="39.5"/>
<circle fill="#ECF0F1" cx="39.3" cy="39.5" r="35.7"/>
<path fill="#374A54" d="M67.6,39.5c0,0.4-0.3,0.7-0.7,0.7H40.4c-0.4,0-0.7-0.3-0.7-0.7l0,0c0-0.4,0.3-0.7,0.7-0.7h26.6
	C67.3,38.8,67.6,39.1,67.6,39.5L67.6,39.5z"/>
<path fill="#374A54" d="M40.3,40.4c-0.5,0.5-1.2,0.5-1.6,0L23.9,25.6c-0.5-0.5-0.5-1.2,0-1.6l0,0c0.5-0.5,1.2-0.5,1.6,0l14.8,14.8
	C40.8,39.2,40.8,40,40.3,40.4L40.3,40.4z"/>
<path fill="#2880BA" d="M44.7,34c-0.2-0.2-0.6-0.2-0.8,0L28.4,49.8c0,0,0,0,0,0.1l-6.3,6.4c-0.2,0.2-0.2,0.6,0,0.8
	c0.2,0.2,0.6,0.2,0.8,0l15.5-15.8c0,0,0,0,0-0.1l6.3-6.4C44.9,34.6,44.9,34.2,44.7,34z"/>
<circle fill="#ECF0F1" stroke="#374A54" stroke-width="0.5" stroke-miterlimit="10" cx="39.5" cy="39.5" r="1.7"/>
<circle fill="#2880BA" cx="44.8" cy="33.8" r="1"/>
<circle fill="#2880BA" cx="21.9" cy="57.3" r="1"/>
<line display="none" fill="none" stroke="#374A54" stroke-width="0.5" stroke-miterlimit="10" x1="39.3" y1="73.7" x2="39.3" y2="70.1"/>
<line display="none" fill="none" stroke="#374A54" stroke-width="0.5" stroke-miterlimit="10" x1="39.3" y1="8.8" x2="39.3" y2="5.2"/>
<line display="none" fill="none" stroke="#374A54" stroke-width="0.5" stroke-miterlimit="10" x1="73.5" y1="39.5" x2="69.9" y2="39.5"/>
<line display="none" fill="none" stroke="#374A54" stroke-width="0.5" stroke-miterlimit="10" x1="8.7" y1="39.5" x2="5" y2="39.5"/>
</svg>
