<?xml version="1.0" encoding="utf-8"?>
<!-- Generator: Adobe Illustrator 17.1.0, SVG Export Plug-In . SVG Version: 6.00 Build 0)  -->
<!DOCTYPE svg PUBLIC "-//W3C//DTD SVG 1.1//EN" "http://www.w3.org/Graphics/SVG/1.1/DTD/svg11.dtd">
<svg version="1.1" id="Layer_1" xmlns="http://www.w3.org/2000/svg" xmlns:xlink="http://www.w3.org/1999/xlink" x="0px" y="0px"
	 viewBox="0 0 300 300" enable-background="new 0 0 300 300" xml:space="preserve">
<path fill="#BDC3C7" d="M257.5,165.4l41.1-12.5l-4.4-39.7l-42.5-4.4c-4.8-13-12.3-25.3-22.5-36.3l15.3-39.7l-33.8-21.3l-29.4,30.8
	c-6.7-2.2-13.9-3.6-21.3-4.4c-7.3-0.8-14.5-0.8-21.3-0.8L117.6,0.9L81,12.6l5,41.7c-11.7,8.1-22.7,18.4-30.8,29.8l-41.6-5.9
	L0.5,115.6l36.7,22.2c-1.4,14.5,0,29.4,4.4,42.5l-31.6,28.4l20.5,33.8l39.7-14.5c10.3,9.5,22.7,17.5,35.8,23.4l2.8,42.5l39.7,5
	l13.1-40.3c14.5-2.2,28.4-6.7,40.3-13.9l35.2,24.1l28.4-28l-22.7-35.2C250.1,193.9,255.4,180,257.5,165.4z M150,184.2
	c-19,0-34.4-15.4-34.4-34.4s15.4-34.4,34.4-34.4s34.4,15.4,34.4,34.4S169,184.2,150,184.2z"/>
<path fill="#95A5A6" d="M149.5,57.4C98.5,57.4,57,98.8,57,149.9s41.4,92.5,92.5,92.5c51.1,0,92.5-41.4,92.5-92.5
	S200.6,57.4,149.5,57.4z M149.5,205.4c-30.7,0-55.5-24.9-55.5-55.5s24.9-55.5,55.5-55.5c30.7,0,55.5,24.9,55.5,55.5
	S180.2,205.4,149.5,205.4z"/>
</svg>
