<?xml version="1.0" encoding="utf-8"?>
<!-- Generator: Adobe Illustrator 17.1.0, SVG Export Plug-In . SVG Version: 6.00 Build 0)  -->
<!DOCTYPE svg PUBLIC "-//W3C//DTD SVG 1.1//EN" "http://www.w3.org/Graphics/SVG/1.1/DTD/svg11.dtd">
<svg version="1.1" id="Layer_1" xmlns="http://www.w3.org/2000/svg" xmlns:xlink="http://www.w3.org/1999/xlink" x="0px" y="0px"
	 viewBox="0 0 170.2 271" enable-background="new 0 0 170.2 271" xml:space="preserve">
<g id="aDSc8r.tif">
	<g>
		<path fill="#95A5A4" d="M84.9,271c-5.6-11.3-10.8-21.7-16-32.2C49.6,199.9,30.5,160.9,11,122.1C-14.6,71.2,18,9.6,74.4,2.6
			c46-5.7,87.5,27.1,92.7,73c1.8,15.8-0.7,30.9-7.7,45.1c-24,48.7-48.1,97.2-72.2,145.9C86.6,267.7,86,268.9,84.9,271z M126.2,84.8
			c0-22.9-18.4-41.3-41.2-41.3c-22.8,0-41.3,18.4-41.3,41.2c-0.1,23,18.5,41.7,41.4,41.7C107.7,126.2,126.2,107.5,126.2,84.8z"/>
	</g>
</g>
</svg>
