<?xml version="1.0" encoding="utf-8"?>
<!-- Generator: Adobe Illustrator 17.1.0, SVG Export Plug-In . SVG Version: 6.00 Build 0)  -->
<!DOCTYPE svg PUBLIC "-//W3C//DTD SVG 1.1//EN" "http://www.w3.org/Graphics/SVG/1.1/DTD/svg11.dtd">
<svg version="1.1" id="Your_Icon" xmlns="http://www.w3.org/2000/svg" xmlns:xlink="http://www.w3.org/1999/xlink" x="0px" y="0px"
	 viewBox="0 0 100 100" enable-background="new 0 0 100 100" xml:space="preserve">
<circle fill="#BDC3C7" cx="50" cy="50" r="50"/>
<path fill="#2980B9" d="M39.4,83.6c0,0,30.5,0,33.2,0c0,0,6.2,0,6.2-6.1c0-2.6,0-4.3,0-4.3h-34L39.4,83.6z M70.9,24.8l-21,39.3
	L78.8,64c0,0,0-31,0-33.6c0-5.7-3.9-5.7-5.4-5.7S70.9,24.8,70.9,24.8z M52.1,48.9c0,0,13.2-20.4,13.2-27.7S59.4,8.1,52.1,8.1
	S38.9,14,38.9,21.2C38.9,28.5,52.1,48.9,52.1,48.9z M52.1,13.8c3.9,0,7.1,3.2,7.1,7.1c0,3.9-3.2,7.1-7.1,7.1S45,24.8,45,20.9
	C45,17,48.2,13.8,52.1,13.8z M33.8,24.8c0,0-5.6,0-6.9,0c-6.8,0-6.8,6.6-6.8,6.6c0,2.8,0,42.7,0,45.5c0,6.7,5.2,6.7,5.2,6.7
	c2.2,0,2.5,0,2.5,0l18.3-34.2L33.8,24.8z"/>
<path display="none" fill="#95A5A6" d="M39.4,86.6c0,0,30.5,0,33.2,0c0,0,6.2,0,6.2-6.1c0-2.6,0-4.3,0-4.3h-34L39.4,86.6z
	 M70.9,27.8l-21,39.3L78.8,67c0,0,0-31,0-33.6c0-5.7-3.9-5.7-5.4-5.7S70.9,27.8,70.9,27.8z M52.1,51.9c0,0,13.2-20.4,13.2-27.7
	s-5.9-13.2-13.2-13.2S38.9,17,38.9,24.2C38.9,31.5,52.1,51.9,52.1,51.9z M52.1,16.8c3.9,0,7.1,3.2,7.1,7.1c0,3.9-3.2,7.1-7.1,7.1
	S45,27.8,45,23.9C45,20,48.2,16.8,52.1,16.8z M33.8,27.8c0,0-5.6,0-6.9,0c-6.8,0-6.8,6.6-6.8,6.6c0,2.8,0,42.7,0,45.5
	c0,6.7,5.2,6.7,5.2,6.7c2.2,0,2.5,0,2.5,0l18.3-34.2L33.8,27.8z"/>
</svg>
