<?xml version="1.0" encoding="utf-8"?>
<!-- Generator: Adobe Illustrator 17.1.0, SVG Export Plug-In . SVG Version: 6.00 Build 0)  -->
<!DOCTYPE svg PUBLIC "-//W3C//DTD SVG 1.1//EN" "http://www.w3.org/Graphics/SVG/1.1/DTD/svg11.dtd">
<svg version="1.1" id="Layer_1" xmlns="http://www.w3.org/2000/svg" xmlns:xlink="http://www.w3.org/1999/xlink" x="0px" y="0px"
	 viewBox="0 0 30 30" enable-background="new 0 0 30 30" xml:space="preserve">
<circle fill="#FFFFFF" cx="15" cy="15" r="13.8"/>
<path fill="#D33C32" d="M15,0.2C6.8,0.2,0.2,6.8,0.2,15S6.8,29.8,15,29.8S29.8,23.1,29.8,15S23.1,0.2,15,0.2z M25,12.3
	c-2.5,0-5,0-7.5,0c0,4.1,0,8.1,0,12.2c-1.7,0-3.3,0-5,0c0-4.1,0-8.1,0-12.2c-2.4,0-4.8,0-7.2,0c0-1.5,0-3,0-4.5c6.6,0,13.1,0,19.8,0
	C25,9.3,25,10.8,25,12.3z"/>
</svg>
