<?xml version="1.0" encoding="utf-8"?>
<!-- Generator: Adobe Illustrator 17.1.0, SVG Export Plug-In . SVG Version: 6.00 Build 0)  -->
<!DOCTYPE svg PUBLIC "-//W3C//DTD SVG 1.1//EN" "http://www.w3.org/Graphics/SVG/1.1/DTD/svg11.dtd">
<svg version="1.1" id="Layer_1" xmlns="http://www.w3.org/2000/svg" xmlns:xlink="http://www.w3.org/1999/xlink" x="0px" y="0px"
	 viewBox="0 0 30 30" enable-background="new 0 0 30 30" xml:space="preserve">
<circle fill="#BDC3C7" cx="15" cy="15" r="15"/>
<g>
	<path fill="#FFFFFF" d="M15,8.6c2.1,0,3.9,1,5.1,2.5l-2.2,2.3h7V6.3l-2.2,2.2C20.8,6.4,18.1,5,15,5c-5,0-9.1,3.6-9.9,8.4h3.7
		C9.5,10.6,12,8.6,15,8.6z"/>
	<path fill="#FFFFFF" d="M15,21.4c-2,0-3.9-1-5-2.4l2.3-2.4H5.1v7.2l2.3-2.3C9.3,23.6,12,25,15,25c5,0,9.1-3.6,9.9-8.4h-3.7
		C20.5,19.4,18,21.4,15,21.4z"/>
</g>
</svg>
