<?xml version="1.0" encoding="utf-8"?>
<!-- Generator: Adobe Illustrator 17.1.0, SVG Export Plug-In . SVG Version: 6.00 Build 0)  -->
<!DOCTYPE svg PUBLIC "-//W3C//DTD SVG 1.1//EN" "http://www.w3.org/Graphics/SVG/1.1/DTD/svg11.dtd">
<svg version="1.1" id="Layer_1" xmlns="http://www.w3.org/2000/svg" xmlns:xlink="http://www.w3.org/1999/xlink" x="0px" y="0px"
	 viewBox="0 0 300 300" enable-background="new 0 0 300 300" xml:space="preserve">
<g opacity="0.85">
	<g>
		<g>
			<polygon fill="#9A9FA4" points="294.4,175.9 130,293.3 0.2,262.4 164.6,145.1 			"/>
		</g>
	</g>
</g>
<g opacity="0.2">
	<g>
		<g>
			<polygon fill="#2E4154" points="198.1,198.7 174.9,215.2 45.1,184.4 68.3,167.8 			"/>
		</g>
		<g>
			<polygon fill="#2E4154" points="224.3,179.9 201.1,196.5 71.3,165.7 94.5,149.1 			"/>
		</g>
		<g>
			<polygon fill="#2E4154" points="146.9,111.7 140.9,116 270.7,146.8 253.5,159.1 123.7,128.2 			"/>
		</g>
		<g>
			<polygon fill="#2E4154" points="250.5,161.2 227.3,177.8 97.5,147 120.7,130.4 			"/>
		</g>
		<g>
			<polygon fill="#2E4154" points="171.9,217.4 148.7,234 18.8,203.1 42.1,186.6 			"/>
		</g>
		<g>
			<polygon fill="#2E4154" points="294.4,129.9 270.7,146.8 140.9,116 146.9,111.7 164.6,99.1 			"/>
		</g>
		<g>
			<polygon fill="#2E4154" points="140.2,240 130,247.3 0.2,216.5 10.3,209.2 			"/>
		</g>
	</g>
</g>
<g opacity="0.85">
	<g>
		<g>
			<polygon fill="#2E4154" points="276.2,90.9 253,107.5 123.2,76.7 146.4,60.1 			"/>
		</g>
		<g>
			<polygon fill="#2E4154" points="250,109.7 226.8,126.2 97,95.4 120.2,78.8 			"/>
		</g>
		<g>
			<polygon fill="#2E4154" points="171.4,165.8 148.2,182.4 18.3,151.6 41.6,135 			"/>
		</g>
		<g>
			<polygon fill="#2E4154" points="223.8,128.4 200.6,145 70.8,114.1 94,97.6 			"/>
		</g>
		<g>
			<polygon fill="#2E4154" points="197.6,147.1 174.4,163.7 44.6,132.9 67.8,116.3 			"/>
		</g>
	</g>
</g>
<g opacity="0.85">
	<g>
		<g>
			<polygon fill="#216999" points="140.1,146 130,153.3 0.2,122.5 10.3,115.2 			"/>
		</g>
		<g>
			<polygon fill="#216999" points="294.4,35.9 270.7,52.8 140.9,22 164.6,5.1 			"/>
		</g>
	</g>
</g>
</svg>
